<svg xmlns="http://www.w3.org/2000/svg" viewBox="0 0 520 108" width="520" height="108" role="img">
  <defs>
    <pattern id="key-espresso" patternUnits="userSpaceOnUse" x="0" y="7" width="9" height="9">
      <rect width="9" height="9" fill="#fff"/>
      <path d="M-2 2 L2 -2 M-1 10 L10 -1 M7 11 L11 7" stroke="#2b2b2b" stroke-width="1.6" stroke-linecap="round"/>
    </pattern>
    <pattern id="key-foam" patternUnits="userSpaceOnUse" x="0" y="7" width="12" height="12">
      <rect width="12" height="12" fill="#fff"/>
      <circle cx="3" cy="3" r="1.8" fill="#2b2b2b"/><circle cx="9" cy="9" r="1.8" fill="#2b2b2b"/>
    </pattern>
    <pattern id="key-water" patternUnits="userSpaceOnUse" x="0" y="7" width="18" height="7">
      <rect width="18" height="7" fill="#fff"/>
      <path d="M0 3 q4.5 -2.5 9 0 t9 0" fill="none" stroke="#2b2b2b" stroke-width="1.6" stroke-linecap="round"/>
    </pattern>
  </defs>
  <g font-family="-apple-system, BlinkMacSystemFont, 'Segoe UI', Roboto, sans-serif" font-size="17" fill="#6b6b6b">
  <circle cx="52" cy="26" r="19" fill="url(#key-espresso)" stroke="#2b2b2b" stroke-width="2"/>
  <text x="52" y="67" text-anchor="middle"><tspan x="52" dy="0">espresso</tspan></text>
  <circle cx="156" cy="26" r="19" fill="#ffffff" stroke="#2b2b2b" stroke-width="2"/>
  <text x="156" y="67" text-anchor="middle"><tspan x="156" dy="0">steamed</tspan><tspan x="156" dy="19">milk</tspan></text>
  <circle cx="260" cy="26" r="19" fill="url(#key-foam)" stroke="#2b2b2b" stroke-width="2"/>
  <text x="260" y="67" text-anchor="middle"><tspan x="260" dy="0">foam</tspan></text>
  <circle cx="364" cy="26" r="19" fill="#2b2b2b" stroke="#2b2b2b" stroke-width="2"/>
  <text x="364" y="67" text-anchor="middle"><tspan x="364" dy="0">chocolate</tspan><tspan x="364" dy="19">powder</tspan></text>
  <circle cx="468" cy="26" r="19" fill="url(#key-water)" stroke="#2b2b2b" stroke-width="2"/>
  <text x="468" y="67" text-anchor="middle"><tspan x="468" dy="0">water</tspan></text>
  </g>
</svg>
